<svg xmlns="http://www.w3.org/2000/svg" xmlns:xlink="http://www.w3.org/1999/xlink" width="500" zoomAndPan="magnify" viewBox="0 0 375 374.999991" height="500" preserveAspectRatio="xMidYMid meet" version="1.0"><defs><clipPath id="f19659ee34"><path d="M 99 70.011719 L 276 70.011719 L 276 304.761719 L 99 304.761719 Z M 99 70.011719 " clip-rule="nonzero"/></clipPath></defs><rect x="-37.5" width="450" fill="#ffffff" y="-37.499999" height="449.999989" fill-opacity="1"/><rect x="-37.5" width="450" fill="#ffffff" y="-37.499999" height="449.999989" fill-opacity="1"/><g clip-path="url(#f19659ee34)"><path fill="#000000" d="M 246.074219 84.683594 C 247.039062 84.683594 247.992188 84.777344 248.9375 84.96875 C 249.882812 85.15625 250.800781 85.433594 251.691406 85.800781 C 252.582031 86.171875 253.425781 86.621094 254.226562 87.15625 C 255.027344 87.691406 255.769531 88.300781 256.449219 88.984375 C 257.132812 89.664062 257.738281 90.40625 258.273438 91.207031 C 258.808594 92.007812 259.261719 92.851562 259.628906 93.742188 C 260 94.632812 260.277344 95.550781 260.464844 96.496094 C 260.652344 97.441406 260.746094 98.394531 260.746094 99.355469 L 260.746094 275.417969 C 260.746094 276.382812 260.652344 277.335938 260.464844 278.28125 C 260.277344 279.226562 260 280.144531 259.628906 281.035156 C 259.261719 281.925781 258.808594 282.769531 258.273438 283.570312 C 257.738281 284.371094 257.132812 285.113281 256.449219 285.792969 C 255.769531 286.476562 255.027344 287.082031 254.226562 287.617188 C 253.425781 288.152344 252.582031 288.605469 251.691406 288.972656 C 250.800781 289.34375 249.882812 289.621094 248.9375 289.808594 C 247.992188 289.996094 247.039062 290.089844 246.074219 290.089844 L 128.699219 290.089844 C 127.738281 290.089844 126.785156 289.996094 125.839844 289.808594 C 124.894531 289.621094 123.976562 289.34375 123.085938 288.972656 C 122.195312 288.605469 121.351562 288.152344 120.550781 287.617188 C 119.75 287.082031 119.007812 286.476562 118.328125 285.792969 C 117.644531 285.113281 117.035156 284.371094 116.5 283.570312 C 115.964844 282.769531 115.515625 281.925781 115.144531 281.035156 C 114.777344 280.144531 114.5 279.226562 114.3125 278.28125 C 114.121094 277.335938 114.027344 276.382812 114.027344 275.417969 L 114.027344 99.355469 C 114.027344 98.394531 114.121094 97.441406 114.3125 96.496094 C 114.5 95.550781 114.777344 94.632812 115.144531 93.742188 C 115.515625 92.851562 115.964844 92.007812 116.5 91.207031 C 117.035156 90.40625 117.644531 89.664062 118.328125 88.984375 C 119.007812 88.300781 119.75 87.691406 120.550781 87.15625 C 121.351562 86.621094 122.195312 86.171875 123.085938 85.800781 C 123.976562 85.433594 124.894531 85.15625 125.839844 84.96875 C 126.785156 84.777344 127.738281 84.683594 128.699219 84.683594 Z M 128.699219 70.011719 C 127.738281 70.011719 126.78125 70.058594 125.824219 70.15625 C 124.867188 70.25 123.917969 70.390625 122.976562 70.578125 C 122.035156 70.765625 121.101562 70.996094 120.183594 71.277344 C 119.261719 71.554688 118.359375 71.878906 117.472656 72.246094 C 116.582031 72.613281 115.714844 73.023438 114.867188 73.476562 C 114.019531 73.929688 113.199219 74.425781 112.398438 74.957031 C 111.597656 75.492188 110.828125 76.0625 110.085938 76.675781 C 109.34375 77.285156 108.632812 77.929688 107.953125 78.609375 C 107.273438 79.289062 106.628906 80 106.019531 80.742188 C 105.40625 81.484375 104.835938 82.253906 104.300781 83.054688 C 103.769531 83.855469 103.273438 84.675781 102.820312 85.523438 C 102.367188 86.371094 101.957031 87.238281 101.589844 88.128906 C 101.222656 89.015625 100.898438 89.917969 100.621094 90.839844 C 100.339844 91.757812 100.109375 92.691406 99.921875 93.632812 C 99.734375 94.574219 99.59375 95.523438 99.5 96.480469 C 99.402344 97.4375 99.355469 98.394531 99.355469 99.355469 L 99.355469 275.417969 C 99.355469 276.378906 99.402344 277.339844 99.5 278.296875 C 99.59375 279.253906 99.734375 280.203125 99.921875 281.144531 C 100.109375 282.085938 100.339844 283.019531 100.621094 283.9375 C 100.898438 284.855469 101.222656 285.761719 101.589844 286.648438 C 101.957031 287.535156 102.367188 288.40625 102.820312 289.253906 C 103.273438 290.101562 103.769531 290.921875 104.300781 291.722656 C 104.835938 292.519531 105.40625 293.292969 106.019531 294.035156 C 106.628906 294.777344 107.273438 295.488281 107.953125 296.167969 C 108.632812 296.847656 109.34375 297.492188 110.085938 298.101562 C 110.828125 298.710938 111.597656 299.285156 112.398438 299.816406 C 113.199219 300.351562 114.019531 300.84375 114.867188 301.296875 C 115.714844 301.75 116.582031 302.160156 117.472656 302.53125 C 118.359375 302.898438 119.261719 303.222656 120.183594 303.5 C 121.101562 303.777344 122.035156 304.011719 122.976562 304.199219 C 123.917969 304.386719 124.867188 304.527344 125.824219 304.621094 C 126.78125 304.714844 127.738281 304.761719 128.699219 304.761719 L 246.074219 304.761719 C 247.035156 304.761719 247.996094 304.714844 248.953125 304.621094 C 249.910156 304.527344 250.859375 304.386719 251.800781 304.199219 C 252.742188 304.011719 253.675781 303.777344 254.59375 303.5 C 255.511719 303.222656 256.417969 302.898438 257.304688 302.53125 C 258.191406 302.160156 259.0625 301.75 259.910156 301.296875 C 260.757812 300.84375 261.578125 300.351562 262.378906 299.816406 C 263.175781 299.285156 263.949219 298.710938 264.691406 298.101562 C 265.433594 297.492188 266.144531 296.847656 266.824219 296.167969 C 267.503906 295.488281 268.148438 294.777344 268.757812 294.035156 C 269.367188 293.292969 269.941406 292.519531 270.472656 291.722656 C 271.007812 290.921875 271.5 290.101562 271.953125 289.253906 C 272.40625 288.40625 272.816406 287.535156 273.1875 286.648438 C 273.554688 285.761719 273.878906 284.855469 274.15625 283.9375 C 274.433594 283.019531 274.667969 282.085938 274.855469 281.144531 C 275.042969 280.203125 275.183594 279.253906 275.277344 278.296875 C 275.371094 277.339844 275.417969 276.378906 275.417969 275.417969 L 275.417969 99.355469 C 275.417969 98.394531 275.371094 97.4375 275.277344 96.480469 C 275.183594 95.523438 275.042969 94.574219 274.855469 93.632812 C 274.667969 92.691406 274.433594 91.757812 274.15625 90.839844 C 273.878906 89.917969 273.554688 89.015625 273.1875 88.128906 C 272.816406 87.238281 272.40625 86.371094 271.953125 85.523438 C 271.5 84.675781 271.007812 83.855469 270.472656 83.054688 C 269.941406 82.253906 269.367188 81.484375 268.757812 80.742188 C 268.148438 80 267.503906 79.289062 266.824219 78.609375 C 266.144531 77.929688 265.433594 77.285156 264.691406 76.675781 C 263.949219 76.0625 263.175781 75.492188 262.378906 74.957031 C 261.578125 74.425781 260.757812 73.929688 259.910156 73.476562 C 259.0625 73.023438 258.191406 72.613281 257.304688 72.246094 C 256.417969 71.878906 255.511719 71.554688 254.59375 71.277344 C 253.675781 70.996094 252.742188 70.765625 251.800781 70.578125 C 250.859375 70.390625 249.910156 70.25 248.953125 70.15625 C 247.996094 70.058594 247.035156 70.011719 246.074219 70.011719 Z M 128.699219 70.011719 " fill-opacity="1" fill-rule="nonzero"/></g><path fill="#000000" d="M 128.699219 106.691406 C 128.699219 106.210938 128.746094 105.734375 128.839844 105.261719 C 128.9375 104.789062 129.074219 104.332031 129.257812 103.886719 C 129.445312 103.441406 129.667969 103.019531 129.9375 102.617188 C 130.203125 102.21875 130.507812 101.847656 130.847656 101.503906 C 131.191406 101.164062 131.5625 100.859375 131.960938 100.59375 C 132.363281 100.324219 132.785156 100.101562 133.230469 99.914062 C 133.675781 99.730469 134.132812 99.59375 134.605469 99.496094 C 135.078125 99.402344 135.554688 99.355469 136.035156 99.355469 L 238.738281 99.355469 C 239.222656 99.355469 239.699219 99.402344 240.171875 99.496094 C 240.644531 99.59375 241.101562 99.730469 241.546875 99.914062 C 241.992188 100.101562 242.414062 100.324219 242.816406 100.59375 C 243.214844 100.859375 243.585938 101.164062 243.925781 101.503906 C 244.269531 101.847656 244.570312 102.21875 244.839844 102.617188 C 245.105469 103.019531 245.332031 103.441406 245.515625 103.886719 C 245.703125 104.332031 245.839844 104.789062 245.933594 105.261719 C 246.027344 105.734375 246.074219 106.210938 246.074219 106.691406 L 246.074219 136.035156 C 246.074219 136.519531 246.027344 136.996094 245.933594 137.46875 C 245.839844 137.941406 245.703125 138.398438 245.515625 138.84375 C 245.332031 139.289062 245.105469 139.710938 244.839844 140.113281 C 244.570312 140.511719 244.269531 140.882812 243.925781 141.222656 C 243.585938 141.566406 243.214844 141.867188 242.816406 142.136719 C 242.414062 142.402344 241.992188 142.628906 241.546875 142.8125 C 241.101562 143 240.644531 143.136719 240.171875 143.230469 C 239.699219 143.324219 239.222656 143.371094 238.738281 143.371094 L 136.035156 143.371094 C 135.554688 143.371094 135.078125 143.324219 134.605469 143.230469 C 134.132812 143.136719 133.675781 143 133.230469 142.8125 C 132.785156 142.628906 132.363281 142.402344 131.960938 142.136719 C 131.5625 141.867188 131.191406 141.566406 130.847656 141.222656 C 130.507812 140.882812 130.203125 140.511719 129.9375 140.113281 C 129.667969 139.710938 129.445312 139.289062 129.257812 138.84375 C 129.074219 138.398438 128.9375 137.941406 128.839844 137.46875 C 128.746094 136.996094 128.699219 136.519531 128.699219 136.035156 Z M 128.699219 165.378906 C 128.699219 164.898438 128.746094 164.421875 128.839844 163.949219 C 128.9375 163.476562 129.074219 163.019531 129.257812 162.574219 C 129.445312 162.128906 129.667969 161.707031 129.9375 161.304688 C 130.203125 160.90625 130.507812 160.535156 130.847656 160.191406 C 131.191406 159.851562 131.5625 159.546875 131.960938 159.28125 C 132.363281 159.011719 132.785156 158.789062 133.230469 158.601562 C 133.675781 158.417969 134.132812 158.28125 134.605469 158.183594 C 135.078125 158.089844 135.554688 158.042969 136.035156 158.042969 L 150.707031 158.042969 C 151.191406 158.042969 151.667969 158.089844 152.140625 158.183594 C 152.613281 158.28125 153.070312 158.417969 153.515625 158.601562 C 153.960938 158.789062 154.382812 159.011719 154.785156 159.28125 C 155.183594 159.546875 155.554688 159.851562 155.894531 160.191406 C 156.238281 160.535156 156.539062 160.90625 156.808594 161.304688 C 157.074219 161.707031 157.300781 162.128906 157.484375 162.574219 C 157.671875 163.019531 157.808594 163.476562 157.902344 163.949219 C 157.996094 164.421875 158.042969 164.898438 158.042969 165.378906 L 158.042969 180.050781 C 158.042969 180.535156 157.996094 181.011719 157.902344 181.484375 C 157.808594 181.957031 157.671875 182.414062 157.484375 182.859375 C 157.300781 183.304688 157.074219 183.726562 156.808594 184.128906 C 156.539062 184.527344 156.238281 184.898438 155.894531 185.238281 C 155.554688 185.582031 155.183594 185.882812 154.785156 186.152344 C 154.382812 186.417969 153.960938 186.644531 153.515625 186.828125 C 153.070312 187.015625 152.613281 187.152344 152.140625 187.246094 C 151.667969 187.339844 151.191406 187.386719 150.707031 187.386719 L 136.035156 187.386719 C 135.554688 187.386719 135.078125 187.339844 134.605469 187.246094 C 134.132812 187.152344 133.675781 187.015625 133.230469 186.828125 C 132.785156 186.644531 132.363281 186.417969 131.960938 186.152344 C 131.5625 185.882812 131.191406 185.582031 130.847656 185.238281 C 130.507812 184.898438 130.203125 184.527344 129.9375 184.128906 C 129.667969 183.726562 129.445312 183.304688 129.257812 182.859375 C 129.074219 182.414062 128.9375 181.957031 128.839844 181.484375 C 128.746094 181.011719 128.699219 180.535156 128.699219 180.050781 Z M 128.699219 209.394531 C 128.699219 208.914062 128.746094 208.4375 128.839844 207.964844 C 128.9375 207.492188 129.074219 207.035156 129.257812 206.589844 C 129.445312 206.144531 129.667969 205.722656 129.9375 205.320312 C 130.203125 204.921875 130.507812 204.550781 130.847656 204.207031 C 131.191406 203.867188 131.5625 203.5625 131.960938 203.296875 C 132.363281 203.027344 132.785156 202.804688 133.230469 202.617188 C 133.675781 202.433594 134.132812 202.296875 134.605469 202.199219 C 135.078125 202.105469 135.554688 202.058594 136.035156 202.058594 L 150.707031 202.058594 C 151.191406 202.058594 151.667969 202.105469 152.140625 202.199219 C 152.613281 202.296875 153.070312 202.433594 153.515625 202.617188 C 153.960938 202.804688 154.382812 203.027344 154.785156 203.296875 C 155.183594 203.5625 155.554688 203.867188 155.894531 204.207031 C 156.238281 204.550781 156.539062 204.921875 156.808594 205.320312 C 157.074219 205.722656 157.300781 206.144531 157.484375 206.589844 C 157.671875 207.035156 157.808594 207.492188 157.902344 207.964844 C 157.996094 208.4375 158.042969 208.914062 158.042969 209.394531 L 158.042969 224.066406 C 158.042969 224.550781 157.996094 225.027344 157.902344 225.5 C 157.808594 225.972656 157.671875 226.429688 157.484375 226.875 C 157.300781 227.320312 157.074219 227.742188 156.808594 228.144531 C 156.539062 228.542969 156.238281 228.914062 155.894531 229.253906 C 155.554688 229.597656 155.183594 229.898438 154.785156 230.167969 C 154.382812 230.433594 153.960938 230.660156 153.515625 230.84375 C 153.070312 231.03125 152.613281 231.167969 152.140625 231.261719 C 151.667969 231.355469 151.191406 231.402344 150.707031 231.402344 L 136.035156 231.402344 C 135.554688 231.402344 135.078125 231.355469 134.605469 231.261719 C 134.132812 231.167969 133.675781 231.03125 133.230469 230.84375 C 132.785156 230.660156 132.363281 230.433594 131.960938 230.167969 C 131.5625 229.898438 131.191406 229.597656 130.847656 229.253906 C 130.507812 228.914062 130.203125 228.542969 129.9375 228.144531 C 129.667969 227.742188 129.445312 227.320312 129.257812 226.875 C 129.074219 226.429688 128.9375 225.972656 128.839844 225.5 C 128.746094 225.027344 128.699219 224.550781 128.699219 224.066406 Z M 128.699219 253.410156 C 128.699219 252.929688 128.746094 252.453125 128.839844 251.980469 C 128.9375 251.507812 129.074219 251.050781 129.257812 250.605469 C 129.445312 250.160156 129.667969 249.738281 129.9375 249.335938 C 130.203125 248.9375 130.507812 248.566406 130.847656 248.222656 C 131.191406 247.882812 131.5625 247.578125 131.960938 247.3125 C 132.363281 247.042969 132.785156 246.820312 133.230469 246.632812 C 133.675781 246.449219 134.132812 246.3125 134.605469 246.214844 C 135.078125 246.121094 135.554688 246.074219 136.035156 246.074219 L 150.707031 246.074219 C 151.191406 246.074219 151.667969 246.121094 152.140625 246.214844 C 152.613281 246.3125 153.070312 246.449219 153.515625 246.632812 C 153.960938 246.820312 154.382812 247.042969 154.785156 247.3125 C 155.183594 247.578125 155.554688 247.882812 155.894531 248.222656 C 156.238281 248.566406 156.539062 248.9375 156.808594 249.335938 C 157.074219 249.738281 157.300781 250.160156 157.484375 250.605469 C 157.671875 251.050781 157.808594 251.507812 157.902344 251.980469 C 157.996094 252.453125 158.042969 252.929688 158.042969 253.410156 L 158.042969 268.082031 C 158.042969 268.566406 157.996094 269.042969 157.902344 269.515625 C 157.808594 269.988281 157.671875 270.445312 157.484375 270.890625 C 157.300781 271.335938 157.074219 271.757812 156.808594 272.160156 C 156.539062 272.558594 156.238281 272.929688 155.894531 273.269531 C 155.554688 273.613281 155.183594 273.914062 154.785156 274.183594 C 154.382812 274.449219 153.960938 274.675781 153.515625 274.859375 C 153.070312 275.046875 152.613281 275.183594 152.140625 275.277344 C 151.667969 275.371094 151.191406 275.417969 150.707031 275.417969 L 136.035156 275.417969 C 135.554688 275.417969 135.078125 275.371094 134.605469 275.277344 C 134.132812 275.183594 133.675781 275.046875 133.230469 274.859375 C 132.785156 274.675781 132.363281 274.449219 131.960938 274.183594 C 131.5625 273.914062 131.191406 273.613281 130.847656 273.269531 C 130.507812 272.929688 130.203125 272.558594 129.9375 272.160156 C 129.667969 271.757812 129.445312 271.335938 129.257812 270.890625 C 129.074219 270.445312 128.9375 269.988281 128.839844 269.515625 C 128.746094 269.042969 128.699219 268.566406 128.699219 268.082031 Z M 172.714844 165.378906 C 172.714844 164.898438 172.761719 164.421875 172.855469 163.949219 C 172.953125 163.476562 173.089844 163.019531 173.273438 162.574219 C 173.460938 162.128906 173.683594 161.707031 173.953125 161.304688 C 174.21875 160.90625 174.523438 160.535156 174.863281 160.191406 C 175.207031 159.851562 175.578125 159.546875 175.976562 159.28125 C 176.378906 159.011719 176.800781 158.789062 177.246094 158.601562 C 177.691406 158.417969 178.148438 158.28125 178.621094 158.183594 C 179.09375 158.089844 179.570312 158.042969 180.050781 158.042969 L 194.722656 158.042969 C 195.207031 158.042969 195.683594 158.089844 196.15625 158.183594 C 196.628906 158.28125 197.085938 158.417969 197.53125 158.601562 C 197.976562 158.789062 198.398438 159.011719 198.800781 159.28125 C 199.199219 159.546875 199.570312 159.851562 199.910156 160.191406 C 200.253906 160.535156 200.554688 160.90625 200.824219 161.304688 C 201.089844 161.707031 201.316406 162.128906 201.5 162.574219 C 201.6875 163.019531 201.824219 163.476562 201.917969 163.949219 C 202.011719 164.421875 202.058594 164.898438 202.058594 165.378906 L 202.058594 180.050781 C 202.058594 180.535156 202.011719 181.011719 201.917969 181.484375 C 201.824219 181.957031 201.6875 182.414062 201.5 182.859375 C 201.316406 183.304688 201.089844 183.726562 200.824219 184.128906 C 200.554688 184.527344 200.253906 184.898438 199.910156 185.238281 C 199.570312 185.582031 199.199219 185.882812 198.800781 186.152344 C 198.398438 186.417969 197.976562 186.644531 197.53125 186.828125 C 197.085938 187.015625 196.628906 187.152344 196.15625 187.246094 C 195.683594 187.339844 195.207031 187.386719 194.722656 187.386719 L 180.050781 187.386719 C 179.570312 187.386719 179.09375 187.339844 178.621094 187.246094 C 178.148438 187.152344 177.691406 187.015625 177.246094 186.828125 C 176.800781 186.644531 176.378906 186.417969 175.976562 186.152344 C 175.578125 185.882812 175.207031 185.582031 174.863281 185.238281 C 174.523438 184.898438 174.21875 184.527344 173.953125 184.128906 C 173.683594 183.726562 173.460938 183.304688 173.273438 182.859375 C 173.089844 182.414062 172.953125 181.957031 172.855469 181.484375 C 172.761719 181.011719 172.714844 180.535156 172.714844 180.050781 Z M 172.714844 209.394531 C 172.714844 208.914062 172.761719 208.4375 172.855469 207.964844 C 172.953125 207.492188 173.089844 207.035156 173.273438 206.589844 C 173.460938 206.144531 173.683594 205.722656 173.953125 205.320312 C 174.21875 204.921875 174.523438 204.550781 174.863281 204.207031 C 175.207031 203.867188 175.578125 203.5625 175.976562 203.296875 C 176.378906 203.027344 176.800781 202.804688 177.246094 202.617188 C 177.691406 202.433594 178.148438 202.296875 178.621094 202.199219 C 179.09375 202.105469 179.570312 202.058594 180.050781 202.058594 L 194.722656 202.058594 C 195.207031 202.058594 195.683594 202.105469 196.15625 202.199219 C 196.628906 202.296875 197.085938 202.433594 197.53125 202.617188 C 197.976562 202.804688 198.398438 203.027344 198.800781 203.296875 C 199.199219 203.5625 199.570312 203.867188 199.910156 204.207031 C 200.253906 204.550781 200.554688 204.921875 200.824219 205.320312 C 201.089844 205.722656 201.316406 206.144531 201.5 206.589844 C 201.6875 207.035156 201.824219 207.492188 201.917969 207.964844 C 202.011719 208.4375 202.058594 208.914062 202.058594 209.394531 L 202.058594 224.066406 C 202.058594 224.550781 202.011719 225.027344 201.917969 225.5 C 201.824219 225.972656 201.6875 226.429688 201.5 226.875 C 201.316406 227.320312 201.089844 227.742188 200.824219 228.144531 C 200.554688 228.542969 200.253906 228.914062 199.910156 229.253906 C 199.570312 229.597656 199.199219 229.898438 198.800781 230.167969 C 198.398438 230.433594 197.976562 230.660156 197.53125 230.84375 C 197.085938 231.03125 196.628906 231.167969 196.15625 231.261719 C 195.683594 231.355469 195.207031 231.402344 194.722656 231.402344 L 180.050781 231.402344 C 179.570312 231.402344 179.09375 231.355469 178.621094 231.261719 C 178.148438 231.167969 177.691406 231.03125 177.246094 230.84375 C 176.800781 230.660156 176.378906 230.433594 175.976562 230.167969 C 175.578125 229.898438 175.207031 229.597656 174.863281 229.253906 C 174.523438 228.914062 174.21875 228.542969 173.953125 228.144531 C 173.683594 227.742188 173.460938 227.320312 173.273438 226.875 C 173.089844 226.429688 172.953125 225.972656 172.855469 225.5 C 172.761719 225.027344 172.714844 224.550781 172.714844 224.066406 Z M 172.714844 253.410156 C 172.714844 252.929688 172.761719 252.453125 172.855469 251.980469 C 172.953125 251.507812 173.089844 251.050781 173.273438 250.605469 C 173.460938 250.160156 173.683594 249.738281 173.953125 249.335938 C 174.21875 248.9375 174.523438 248.566406 174.863281 248.222656 C 175.207031 247.882812 175.578125 247.578125 175.976562 247.3125 C 176.378906 247.042969 176.800781 246.820312 177.246094 246.632812 C 177.691406 246.449219 178.148438 246.3125 178.621094 246.214844 C 179.09375 246.121094 179.570312 246.074219 180.050781 246.074219 L 194.722656 246.074219 C 195.207031 246.074219 195.683594 246.121094 196.15625 246.214844 C 196.628906 246.3125 197.085938 246.449219 197.53125 246.632812 C 197.976562 246.820312 198.398438 247.042969 198.800781 247.3125 C 199.199219 247.578125 199.570312 247.882812 199.910156 248.222656 C 200.253906 248.566406 200.554688 248.9375 200.824219 249.335938 C 201.089844 249.738281 201.316406 250.160156 201.5 250.605469 C 201.6875 251.050781 201.824219 251.507812 201.917969 251.980469 C 202.011719 252.453125 202.058594 252.929688 202.058594 253.410156 L 202.058594 268.082031 C 202.058594 268.566406 202.011719 269.042969 201.917969 269.515625 C 201.824219 269.988281 201.6875 270.445312 201.5 270.890625 C 201.316406 271.335938 201.089844 271.757812 200.824219 272.160156 C 200.554688 272.558594 200.253906 272.929688 199.910156 273.269531 C 199.570312 273.613281 199.199219 273.914062 198.800781 274.183594 C 198.398438 274.449219 197.976562 274.675781 197.53125 274.859375 C 197.085938 275.046875 196.628906 275.183594 196.15625 275.277344 C 195.683594 275.371094 195.207031 275.417969 194.722656 275.417969 L 180.050781 275.417969 C 179.570312 275.417969 179.09375 275.371094 178.621094 275.277344 C 178.148438 275.183594 177.691406 275.046875 177.246094 274.859375 C 176.800781 274.675781 176.378906 274.449219 175.976562 274.183594 C 175.578125 273.914062 175.207031 273.613281 174.863281 273.269531 C 174.523438 272.929688 174.21875 272.558594 173.953125 272.160156 C 173.683594 271.757812 173.460938 271.335938 173.273438 270.890625 C 173.089844 270.445312 172.953125 269.988281 172.855469 269.515625 C 172.761719 269.042969 172.714844 268.566406 172.714844 268.082031 Z M 216.730469 165.378906 C 216.730469 164.898438 216.777344 164.421875 216.871094 163.949219 C 216.96875 163.476562 217.105469 163.019531 217.289062 162.574219 C 217.476562 162.128906 217.699219 161.707031 217.96875 161.304688 C 218.234375 160.90625 218.539062 160.535156 218.878906 160.191406 C 219.222656 159.851562 219.59375 159.546875 219.992188 159.28125 C 220.394531 159.011719 220.816406 158.789062 221.261719 158.601562 C 221.707031 158.417969 222.164062 158.28125 222.636719 158.183594 C 223.109375 158.089844 223.585938 158.042969 224.066406 158.042969 L 238.738281 158.042969 C 239.222656 158.042969 239.699219 158.089844 240.171875 158.183594 C 240.644531 158.28125 241.101562 158.417969 241.546875 158.601562 C 241.992188 158.789062 242.414062 159.011719 242.816406 159.28125 C 243.214844 159.546875 243.585938 159.851562 243.925781 160.191406 C 244.269531 160.535156 244.570312 160.90625 244.839844 161.304688 C 245.105469 161.707031 245.332031 162.128906 245.515625 162.574219 C 245.703125 163.019531 245.839844 163.476562 245.933594 163.949219 C 246.027344 164.421875 246.074219 164.898438 246.074219 165.378906 L 246.074219 180.050781 C 246.074219 180.535156 246.027344 181.011719 245.933594 181.484375 C 245.839844 181.957031 245.703125 182.414062 245.515625 182.859375 C 245.332031 183.304688 245.105469 183.726562 244.839844 184.128906 C 244.570312 184.527344 244.269531 184.898438 243.925781 185.238281 C 243.585938 185.582031 243.214844 185.882812 242.816406 186.152344 C 242.414062 186.417969 241.992188 186.644531 241.546875 186.828125 C 241.101562 187.015625 240.644531 187.152344 240.171875 187.246094 C 239.699219 187.339844 239.222656 187.386719 238.738281 187.386719 L 224.066406 187.386719 C 223.585938 187.386719 223.109375 187.339844 222.636719 187.246094 C 222.164062 187.152344 221.707031 187.015625 221.261719 186.828125 C 220.816406 186.644531 220.394531 186.417969 219.992188 186.152344 C 219.59375 185.882812 219.222656 185.582031 218.878906 185.238281 C 218.539062 184.898438 218.234375 184.527344 217.96875 184.128906 C 217.699219 183.726562 217.476562 183.304688 217.289062 182.859375 C 217.105469 182.414062 216.96875 181.957031 216.871094 181.484375 C 216.777344 181.011719 216.730469 180.535156 216.730469 180.050781 Z M 216.730469 209.394531 C 216.730469 208.914062 216.777344 208.4375 216.871094 207.964844 C 216.96875 207.492188 217.105469 207.035156 217.289062 206.589844 C 217.476562 206.144531 217.699219 205.722656 217.96875 205.320312 C 218.234375 204.921875 218.539062 204.550781 218.878906 204.207031 C 219.222656 203.867188 219.59375 203.5625 219.992188 203.296875 C 220.394531 203.027344 220.816406 202.804688 221.261719 202.617188 C 221.707031 202.433594 222.164062 202.296875 222.636719 202.199219 C 223.109375 202.105469 223.585938 202.058594 224.066406 202.058594 L 238.738281 202.058594 C 239.222656 202.058594 239.699219 202.105469 240.171875 202.199219 C 240.644531 202.296875 241.101562 202.433594 241.546875 202.617188 C 241.992188 202.804688 242.414062 203.027344 242.816406 203.296875 C 243.214844 203.5625 243.585938 203.867188 243.925781 204.207031 C 244.269531 204.550781 244.570312 204.921875 244.839844 205.320312 C 245.105469 205.722656 245.332031 206.144531 245.515625 206.589844 C 245.703125 207.035156 245.839844 207.492188 245.933594 207.964844 C 246.027344 208.4375 246.074219 208.914062 246.074219 209.394531 L 246.074219 268.082031 C 246.074219 268.566406 246.027344 269.042969 245.933594 269.515625 C 245.839844 269.988281 245.703125 270.445312 245.515625 270.890625 C 245.332031 271.335938 245.105469 271.757812 244.839844 272.160156 C 244.570312 272.558594 244.269531 272.929688 243.925781 273.269531 C 243.585938 273.613281 243.214844 273.914062 242.816406 274.183594 C 242.414062 274.449219 241.992188 274.675781 241.546875 274.859375 C 241.101562 275.046875 240.644531 275.183594 240.171875 275.277344 C 239.699219 275.371094 239.222656 275.417969 238.738281 275.417969 L 224.066406 275.417969 C 223.585938 275.417969 223.109375 275.371094 222.636719 275.277344 C 222.164062 275.183594 221.707031 275.046875 221.261719 274.859375 C 220.816406 274.675781 220.394531 274.449219 219.992188 274.183594 C 219.59375 273.914062 219.222656 273.613281 218.878906 273.269531 C 218.539062 272.929688 218.234375 272.558594 217.96875 272.160156 C 217.699219 271.757812 217.476562 271.335938 217.289062 270.890625 C 217.105469 270.445312 216.96875 269.988281 216.871094 269.515625 C 216.777344 269.042969 216.730469 268.566406 216.730469 268.082031 Z M 216.730469 209.394531 " fill-opacity="1" fill-rule="nonzero"/></svg>