<svg xmlns="http://www.w3.org/2000/svg" width="500" viewBox="0 0 375 375" height="500" version="1.0"><defs><clipPath id="a"><path d="M99 70.012h177v234.75H99Zm0 0"/></clipPath></defs><path fill="#fff" d="M-37.5-37.5h450v450h-450z"/><path fill="#fff" d="M-37.5-37.5h450v450h-450z"/><g clip-path="url(#a)"><path d="M246.074 84.684c.965 0 1.918.093 2.863.285.946.187 1.864.465 2.754.832.891.37 1.735.82 2.536 1.355.8.535 1.543 1.145 2.222 1.828.684.68 1.29 1.422 1.824 2.223.536.8.989 1.645 1.356 2.535a14.662 14.662 0 0 1 1.117 5.613v176.063a14.672 14.672 0 0 1-4.297 10.375c-.68.684-1.422 1.289-2.222 1.824-.801.535-1.645.988-2.536 1.356a14.672 14.672 0 0 1-5.617 1.117H128.7a14.662 14.662 0 0 1-10.37-4.297 14.447 14.447 0 0 1-1.829-2.223c-.535-.8-.984-1.644-1.355-2.535a14.723 14.723 0 0 1-.832-2.754 14.38 14.38 0 0 1-.286-2.863V99.355c0-.96.094-1.914.285-2.859.188-.945.465-1.863.833-2.754.37-.89.82-1.734 1.355-2.535.535-.8 1.145-1.543 1.828-2.223a14.447 14.447 0 0 1 2.223-1.828c.8-.535 1.644-.984 2.535-1.355.89-.367 1.809-.645 2.754-.832a14.37 14.37 0 0 1 2.86-.285ZM128.7 70.012c-.96 0-1.918.047-2.875.144-.957.094-1.906.235-2.847.422-.942.188-1.875.418-2.793.7-.922.277-1.825.6-2.711.968a28.83 28.83 0 0 0-2.606 1.23c-.847.454-1.668.95-2.469 1.481-.8.535-1.57 1.106-2.312 1.719a29.384 29.384 0 0 0-4.066 4.066 28.355 28.355 0 0 0-1.72 2.313c-.53.8-1.027 1.62-1.48 2.468a28.83 28.83 0 0 0-1.23 2.606c-.367.887-.692 1.789-.969 2.71a28.612 28.612 0 0 0-.7 2.794c-.187.941-.327 1.89-.421 2.847a28.282 28.282 0 0 0-.145 2.875v176.063c0 .96.047 1.922.145 2.879.094.957.234 1.906.422 2.848.187.94.418 1.875.7 2.793a29.338 29.338 0 0 0 2.2 5.316 29.048 29.048 0 0 0 3.2 4.781 29.385 29.385 0 0 0 11.45 8.496c.887.367 1.79.692 2.712.969a29.087 29.087 0 0 0 8.516 1.262h117.374a29.532 29.532 0 0 0 5.727-.563 29.778 29.778 0 0 0 2.793-.699 29.06 29.06 0 0 0 5.316-2.203 29.26 29.26 0 0 0 4.781-3.195 29.384 29.384 0 0 0 8.497-11.454 29.06 29.06 0 0 0 .968-2.71 29.087 29.087 0 0 0 1.262-8.52V99.355a29.452 29.452 0 0 0-.563-5.722 29.778 29.778 0 0 0-.699-2.793 28.665 28.665 0 0 0-.969-2.711 29.26 29.26 0 0 0-4.43-7.387 29.384 29.384 0 0 0-4.066-4.066 29.048 29.048 0 0 0-7.386-4.43 29.06 29.06 0 0 0-2.711-.969 28.612 28.612 0 0 0-2.793-.699 29.087 29.087 0 0 0-2.848-.422 28.359 28.359 0 0 0-2.879-.144Zm0 0"/></g><path d="M128.7 106.691a7.331 7.331 0 0 1 4.53-6.777 7.331 7.331 0 0 1 2.805-.559h102.703a7.341 7.341 0 0 1 2.809.56c.445.187.867.41 1.27.679a7.277 7.277 0 0 1 2.023 2.023 7.463 7.463 0 0 1 1.094 2.645c.093.472.14.949.14 1.43v29.343a7.341 7.341 0 0 1-1.234 4.078c-.27.399-.57.77-.914 1.11-.34.343-.711.644-1.11.914a7.463 7.463 0 0 1-2.644 1.093c-.473.094-.95.141-1.434.141H136.035a7.331 7.331 0 0 1-6.097-3.258 7.482 7.482 0 0 1-.68-1.27 7.341 7.341 0 0 1-.559-2.809Zm0 58.688a7.331 7.331 0 0 1 4.53-6.777 7.331 7.331 0 0 1 2.805-.559h14.672a7.341 7.341 0 0 1 2.809.559c.445.187.867.41 1.27.68a7.277 7.277 0 0 1 2.023 2.023 7.463 7.463 0 0 1 1.093 2.644c.094.473.141.95.141 1.43v14.672a7.341 7.341 0 0 1-1.234 4.078c-.27.398-.57.77-.914 1.11-.34.343-.711.644-1.11.913a7.463 7.463 0 0 1-2.644 1.094c-.473.094-.95.14-1.434.14h-14.672a7.331 7.331 0 0 1-6.097-3.257 7.482 7.482 0 0 1-.68-1.27 7.341 7.341 0 0 1-.559-2.809Zm0 44.016a7.331 7.331 0 0 1 4.53-6.778c.446-.183.903-.32 1.375-.418.473-.094.95-.14 1.43-.14h14.672a7.341 7.341 0 0 1 2.809.558c.445.188.867.41 1.27.68a7.277 7.277 0 0 1 2.023 2.023 7.463 7.463 0 0 1 1.093 2.645c.094.472.141.95.141 1.43v14.671a7.341 7.341 0 0 1-1.234 4.079c-.27.398-.57.77-.914 1.109-.34.344-.711.644-1.11.914a7.463 7.463 0 0 1-2.644 1.094c-.473.093-.95.14-1.434.14h-14.672a7.331 7.331 0 0 1-6.097-3.257 7.482 7.482 0 0 1-.68-1.27 7.341 7.341 0 0 1-.559-2.809Zm0 44.015a7.331 7.331 0 0 1 4.53-6.777 7.331 7.331 0 0 1 2.805-.559h14.672a7.341 7.341 0 0 1 2.809.559c.445.187.867.41 1.27.68a7.277 7.277 0 0 1 2.023 2.023 7.463 7.463 0 0 1 1.093 2.644c.094.473.141.95.141 1.43v14.672a7.341 7.341 0 0 1-1.234 4.078c-.27.399-.57.77-.914 1.11-.34.343-.711.644-1.11.914a7.463 7.463 0 0 1-2.644 1.093c-.473.094-.95.141-1.434.141h-14.672a7.331 7.331 0 0 1-6.097-3.258 7.482 7.482 0 0 1-.68-1.27 7.341 7.341 0 0 1-.559-2.809Zm44.015-88.031a7.331 7.331 0 0 1 4.531-6.777 7.331 7.331 0 0 1 2.805-.559h14.672a7.341 7.341 0 0 1 2.808.559c.446.187.867.41 1.27.68a7.277 7.277 0 0 1 2.023 2.023 7.463 7.463 0 0 1 1.094 2.644c.094.473.14.95.14 1.43v14.672a7.341 7.341 0 0 1-1.234 4.078c-.27.398-.57.77-.914 1.11-.34.343-.71.644-1.11.913a7.463 7.463 0 0 1-2.644 1.094c-.472.094-.949.14-1.433.14H180.05a7.331 7.331 0 0 1-6.098-3.257 7.482 7.482 0 0 1-.68-1.27 7.341 7.341 0 0 1-.559-2.809Zm0 44.016a7.331 7.331 0 0 1 4.531-6.778 7.331 7.331 0 0 1 2.805-.559h14.672a7.341 7.341 0 0 1 2.808.56c.446.187.867.41 1.27.679a7.278 7.278 0 0 1 2.023 2.023 7.463 7.463 0 0 1 1.094 2.645c.094.472.14.95.14 1.43v14.671a7.341 7.341 0 0 1-1.234 4.079c-.27.398-.57.77-.914 1.109-.34.344-.71.644-1.11.914a7.463 7.463 0 0 1-2.644 1.094c-.472.093-.949.14-1.433.14H180.05a7.331 7.331 0 0 1-6.098-3.257 7.482 7.482 0 0 1-.68-1.27 7.341 7.341 0 0 1-.559-2.809Zm0 44.015a7.331 7.331 0 0 1 4.531-6.777 7.331 7.331 0 0 1 2.805-.559h14.672a7.341 7.341 0 0 1 2.808.559c.446.187.867.41 1.27.68a7.277 7.277 0 0 1 2.023 2.023 7.463 7.463 0 0 1 1.094 2.644c.094.473.14.95.14 1.43v14.672a7.341 7.341 0 0 1-1.234 4.078c-.27.399-.57.77-.914 1.11-.34.343-.71.644-1.11.914a7.463 7.463 0 0 1-2.644 1.093c-.472.094-.949.141-1.433.141H180.05a7.331 7.331 0 0 1-6.098-3.258 7.482 7.482 0 0 1-.68-1.27 7.341 7.341 0 0 1-.559-2.809Zm44.015-88.031a7.331 7.331 0 0 1 4.532-6.777 7.331 7.331 0 0 1 2.805-.559h14.671a7.341 7.341 0 0 1 2.809.559c.445.187.867.41 1.27.68a7.277 7.277 0 0 1 2.023 2.023 7.463 7.463 0 0 1 1.094 2.644c.093.473.14.95.14 1.43v14.672a7.341 7.341 0 0 1-1.234 4.078c-.27.398-.57.77-.914 1.11-.34.343-.711.644-1.11.913a7.463 7.463 0 0 1-2.644 1.094c-.473.094-.95.14-1.434.14h-14.672a7.331 7.331 0 0 1-6.097-3.257 7.482 7.482 0 0 1-.68-1.27 7.341 7.341 0 0 1-.559-2.809Zm0 44.016a7.331 7.331 0 0 1 4.532-6.778 7.331 7.331 0 0 1 2.805-.559h14.671a7.341 7.341 0 0 1 2.809.56c.445.187.867.41 1.27.679a7.277 7.277 0 0 1 2.023 2.023 7.463 7.463 0 0 1 1.094 2.645c.093.472.14.95.14 1.43v58.687a7.341 7.341 0 0 1-1.234 4.078c-.27.399-.57.77-.914 1.11-.34.343-.711.644-1.11.914a7.463 7.463 0 0 1-2.644 1.093c-.473.094-.95.141-1.434.141h-14.672a7.331 7.331 0 0 1-6.097-3.258 7.482 7.482 0 0 1-.68-1.27 7.341 7.341 0 0 1-.559-2.809Zm0 0"/></svg>